# xmcd
#
# Track frame offsets: 
#        150
#        9894
#        22307
#        31769
#        42650
#        53462
#        67335
#        79481
#        90497
#        98305
#        106060
#        118423
#
# Disc length: 1689 seconds
#
# Revision: 0
# Processed by: cddbd v1.5.2PL0 Copyright (c) Steve Scherf et al.
# Submitted via: ExactAudioCopyFreeDBPlugin 1.0
#
DISCID=9306970c
DTITLE=Pierre Perret - Les années Barclay - 1960 à 1962
DYEAR=2011
DGENRE=Variété française
TTITLE0=Joséphine
TTITLE1=La fée
TTITLE2=La Julie à Charlie
TTITLE3=Je suis zou, zou, zou
TTITLE4=Le bonheur conjugal
TTITLE5=Ma gosse
TTITLE6=Don Quichotte et Sancho Pança
TTITLE7=C'était pas de sa faute
TTITLE8=Ça va bien, ça va mal
TTITLE9=Dans mes bras
TTITLE10=La Bérésina
TTITLE11=Sales puces à chien
EXTD=Intégrale 1957 - 2011
EXTT0=
EXTT1=
EXTT2=
EXTT3=
EXTT4=
EXTT5=
EXTT6=
EXTT7=
EXTT8=
EXTT9=
EXTT10=
EXTT11=
PLAYORDER=
